# xmcd
# Track frame offsets:
# 150
# 18925
# 38087
# 58224
# 73809
# 91520
# 108352
# 127432
# 148022
# 163477
# 180246
# 201726
# 223237
# 242273
# 258945
# 275837
#
# Disc length: 3957 seconds
# Revision: 0
# Processed by: cddbd v1.4PL0 Copyright (c) Steve Scherf et al.
# Submitted via: VisiTrax 2.9.5.181 - For more info visit www.synapsa.com
#
DISCID=f90f7310
DTITLE=Chris Norman - The Best
DYEAR=2000
DGENRE=Country
TTITLE0=Midnight lady
TTITLE1=Wheels of fire
TTITLE2=Women in love
TTITLE3=I want to be needed
TTITLE4=Ordinary heart
TTITLE5=Some hearts are diamonds
TTITLE6=Till the night we meet again
TTITLE7=A bridge at midnight
TTITLE8=Love for sale
TTITLE9=It's a tragedy
TTITLE10=For the good years
TTITLE11=Here comes the night
TTITLE12=Hearts livin' on emotion
TTITLE13=Chain reaction
TTITLE14=No arms can ever hold you
TTITLE15=Sarah
EXTD=
EXTT0=
EXTT1=
EXTT2=
EXTT3=
EXTT4=
EXTT5=
EXTT6=
EXTT7=
EXTT8=
EXTT9=
EXTT10=
EXTT11=
EXTT12=
EXTT13=
EXTT14=
EXTT15=
PLAYORDER=
